<?xml version="1.0" standalone="no"?>
<!DOCTYPE svg PUBLIC "-//W3C//DTD SVG 20010904//EN"
 "http://www.w3.org/TR/2001/REC-SVG-20010904/DTD/svg10.dtd">
<svg version="1.0" xmlns="http://www.w3.org/2000/svg"
 width="461.000000pt" height="455.000000pt" viewBox="0 0 461.000000 455.000000"
 preserveAspectRatio="xMidYMid meet">

<g transform="translate(0.000000,455.000000) scale(0.100000,-0.100000)"
fill="#000000" stroke="none">
<path d="M2096 4530 c-325 -31 -702 -152 -961 -309 -475 -286 -828 -722 -998
-1232 -158 -472 -152 -1019 17 -1480 34 -95 121 -280 176 -378 118 -207 355
-476 553 -628 425 -325 887 -483 1418 -483 451 0 844 112 1224 348 209 130
472 371 615 564 223 302 369 649 427 1018 21 140 24 500 5 625 -28 174 -81
373 -139 518 -205 516 -575 927 -1065 1182 -254 132 -486 205 -773 245 -108
15 -390 21 -499 10z m399 -51 c956 -83 1749 -754 1979 -1674 45 -182 60 -313
60 -535 -1 -367 -62 -634 -218 -955 -528 -1082 -1822 -1550 -2931 -1058 -460
204 -859 584 -1086 1035 -144 286 -216 577 -226 909 -12 384 56 708 216 1034
375 763 1132 1239 1991 1253 52 1 149 -3 215 -9z"/>
<path d="M2047 4395 c-637 -77 -1199 -423 -1550 -955 -233 -354 -352 -750
-350 -1175 2 -712 356 -1361 963 -1769 117 -79 361 -197 506 -245 382 -127
822 -144 1215 -45 384 96 717 284 999 564 357 355 565 787 620 1290 16 139 8
427 -15 555 -40 225 -96 397 -190 590 -400 820 -1288 1300 -2198 1190z m453
-160 c71 -37 80 -133 18 -201 -19 -21 -19 -21 7 -38 15 -10 33 -33 41 -51 32
-78 6 -156 -66 -192 -41 -21 -57 -23 -226 -23 l-181 0 -7 103 c-3 56 -9 173
-12 260 l-7 157 202 0 c161 0 208 -3 231 -15z m337 -51 c68 -22 83 -30 77 -43
-40 -99 -114 -305 -114 -320 0 -45 91 -79 122 -44 9 10 44 87 79 171 72 174
57 164 174 112 42 -19 65 -35 62 -43 -158 -399 -170 -417 -295 -417 -100 0
-252 65 -300 128 -46 60 -42 115 18 277 28 77 56 155 61 173 6 17 15 32 21 32
5 0 48 -12 95 -26z m-973 -37 c20 -16 44 -42 53 -60 22 -41 21 -128 -1 -162
-17 -25 -16 -25 48 -86 36 -33 77 -70 91 -81 15 -11 23 -24 18 -29 -8 -8 -141
-39 -166 -39 -7 0 -42 25 -79 55 -74 61 -67 59 -102 45 l-25 -9 29 -63 c17
-35 30 -67 30 -73 -1 -5 -37 -27 -80 -47 -75 -35 -80 -36 -90 -19 -10 19 -130
303 -173 408 -19 46 -22 64 -14 71 10 7 211 91 277 116 8 3 45 4 81 3 55 -2
73 -7 103 -30z m1682 -311 c63 -29 116 -81 149 -146 35 -69 33 -81 -24 -112
-27 -16 -51 -28 -53 -28 -3 0 -10 17 -17 38 -22 72 -74 112 -143 112 -41 0
-54 -5 -87 -35 -21 -19 -44 -49 -51 -66 -27 -65 31 -155 116 -179 24 -7 44
-15 44 -18 0 -13 -56 -92 -66 -92 -37 0 -116 36 -157 71 -61 53 -95 111 -103
180 -16 137 73 264 211 300 45 12 124 1 181 -25z m-2317 -54 c69 -43 177 -110
238 -148 62 -38 113 -72 113 -76 0 -10 -122 -88 -138 -88 -7 0 -30 9 -52 20
-22 11 -45 20 -52 20 -7 -1 -40 -25 -72 -54 l-60 -53 23 -52 c12 -30 18 -57
14 -65 -20 -35 -115 -128 -122 -120 -10 12 -221 510 -221 522 0 9 188 172 199
172 2 0 61 -35 130 -78z m1292 -197 c281 -49 527 -176 725 -373 265 -264 397
-607 381 -987 -14 -335 -144 -631 -383 -869 -256 -257 -584 -391 -954 -389
-484 2 -914 254 -1159 678 -205 357 -220 833 -36 1206 194 395 541 654 980
734 98 18 344 18 446 0z m1372 -101 c27 -36 47 -67 45 -68 -1 -1 -37 -27 -78
-57 l-74 -54 99 -12 c55 -6 109 -12 120 -12 14 -1 32 -24 64 -82 l44 -81 -69
6 c-38 3 -103 8 -144 12 l-75 5 -33 -63 c-18 -35 -54 -100 -80 -146 -55 -94
-49 -94 -107 14 l-38 72 52 96 c28 53 51 99 51 101 0 3 -34 -20 -74 -50 -41
-30 -79 -55 -84 -55 -13 0 -104 129 -98 139 3 5 50 41 104 80 53 39 142 104
197 145 55 41 107 75 115 75 8 0 37 -29 63 -65z m-3097 5 c30 -17 54 -33 54
-36 0 -3 -18 -34 -40 -69 l-39 -62 159 -103 c88 -56 160 -104 160 -107 0 -10
-81 -142 -86 -142 -3 0 -29 15 -57 34 -154 99 -271 166 -276 157 -3 -5 -19
-32 -36 -60 -16 -28 -34 -51 -39 -51 -13 0 -106 62 -106 72 0 9 243 398 249
398 2 0 28 -14 57 -31z m-287 -510 l42 -30 -35 -39 c-44 -49 -64 -110 -48
-145 22 -48 55 -31 104 55 15 25 43 61 63 80 33 32 41 35 99 35 53 0 68 -4 98
-27 52 -39 72 -100 65 -188 -7 -86 -31 -141 -90 -205 l-45 -50 -47 25 c-26 14
-49 29 -52 33 -3 5 13 28 35 50 71 74 93 154 49 181 -21 12 -35 -2 -90 -89
-44 -68 -87 -95 -151 -95 -128 0 -198 132 -151 285 16 55 81 155 100 155 6 0
31 -14 54 -31z m3642 -37 c77 -49 131 -188 115 -295 l-7 -47 -55 0 -54 0 6 68
c4 55 2 73 -14 102 -20 37 -58 52 -73 28 -5 -7 -9 -53 -9 -103 0 -135 -37
-192 -133 -202 -62 -7 -109 11 -152 58 -69 77 -101 202 -76 297 l12 42 60 0
c54 0 60 -2 54 -17 -14 -37 -17 -121 -5 -157 16 -49 55 -69 77 -41 11 15 13
36 8 88 -6 61 -4 75 19 120 31 63 65 85 132 86 39 1 60 -5 95 -27z m-3516
-945 l30 -72 85 -5 84 -5 -66 -52 -66 -52 23 -75 c13 -42 20 -76 15 -76 -4 0
-38 18 -74 40 l-66 40 -64 -40 c-35 -22 -68 -40 -74 -40 -6 0 -1 30 13 75 l23
75 -66 53 -66 52 86 3 86 3 28 74 c16 41 31 75 34 75 3 0 19 -33 35 -73z
m3400 -2 l27 -75 79 0 c43 0 79 -3 79 -8 0 -4 -25 -27 -55 -51 -30 -24 -55
-49 -55 -55 0 -6 8 -42 19 -79 10 -37 14 -67 10 -67 -5 0 -38 18 -74 40 l-65
40 -65 -40 c-36 -22 -69 -40 -74 -40 -5 0 -1 28 10 63 10 34 19 69 19 78 0 9
-28 38 -61 65 l-61 49 86 3 c47 1 86 7 86 11 0 12 58 141 63 141 2 0 17 -34
32 -75z m-2858 -674 c23 -11 62 -38 87 -61 45 -41 100 -135 90 -152 -3 -4 -27
-19 -54 -33 l-48 -24 -24 47 c-31 61 -95 99 -151 88 -70 -13 -127 -84 -127
-157 0 -45 70 -114 133 -130 26 -6 47 -13 47 -15 0 -2 -10 -24 -22 -50 l-23
-46 -47 5 c-86 11 -169 67 -216 146 -24 40 -27 56 -27 131 0 71 4 93 25 134
29 56 77 100 135 120 60 21 171 20 222 -3z m2306 -43 l29 -36 -43 -39 c-24
-21 -61 -54 -83 -74 l-39 -36 23 -31 23 -31 41 31 c23 17 56 45 74 62 l32 30
40 -39 c22 -21 40 -42 40 -45 0 -4 -34 -34 -75 -67 l-75 -61 26 -31 c14 -17
30 -31 35 -31 6 0 47 32 91 70 45 39 86 70 92 70 11 -1 82 -88 75 -94 -2 -1
-75 -62 -161 -134 -86 -73 -159 -132 -161 -132 -8 0 -317 400 -317 409 0 5 15
20 33 34 17 13 82 68 142 121 61 53 114 95 119 93 6 -2 23 -19 39 -39z m-1898
-262 c138 -62 200 -189 165 -335 -15 -62 -80 -140 -143 -170 -125 -60 -287
-19 -367 91 -65 89 -74 192 -26 286 70 138 227 192 371 128z m1543 -22 c13
-26 21 -48 19 -50 -2 -2 -46 -25 -98 -50 -52 -25 -95 -47 -97 -49 -2 -1 4 -19
12 -39 l15 -36 58 26 c32 14 73 33 91 40 l33 14 20 -46 c11 -26 18 -51 17 -56
-2 -5 -39 -25 -83 -45 -44 -19 -81 -36 -83 -37 -1 -2 6 -21 15 -44 l18 -40
109 49 c60 27 110 48 111 47 8 -9 47 -109 44 -112 -5 -4 -259 -117 -327 -146
-31 -14 -57 -19 -62 -14 -9 10 -191 466 -187 470 1 1 73 34 160 74 87 40 160
77 163 82 12 19 31 5 52 -38z m-1044 -155 c88 -16 161 -31 164 -33 2 -3 1 -32
-3 -65 -8 -70 1 -67 -132 -45 -53 9 -98 12 -103 8 -5 -5 -10 -27 -12 -49 l-3
-40 94 -14 93 -15 -6 -60 c-3 -32 -8 -61 -10 -63 -2 -3 -45 3 -95 11 -50 9
-97 16 -104 16 -8 0 -20 -33 -31 -85 -10 -47 -22 -85 -25 -85 -14 1 -153 39
-158 44 -3 3 23 120 57 261 l63 256 26 -6 c14 -4 98 -20 185 -36z m619 -48 c5
-34 7 -64 5 -66 -2 -2 -51 -10 -108 -17 l-105 -13 -3 -44 -3 -44 60 6 c33 4
78 9 99 13 45 7 46 6 57 -76 l7 -46 -104 -14 c-91 -13 -103 -17 -101 -34 1
-11 3 -51 5 -90 l3 -71 -84 -8 c-45 -5 -84 -7 -86 -5 -5 5 -38 518 -34 522 5
5 361 54 374 51 6 -1 14 -30 18 -64z"/>
<path d="M2260 4105 l0 -46 58 3 c54 3 57 4 60 31 5 42 -13 57 -69 57 l-49 0
0 -45z"/>
<path d="M2268 3954 c-2 -1 -2 -23 0 -48 l4 -46 53 0 c39 0 54 4 59 16 10 25
7 51 -6 61 -12 10 -104 24 -110 17z"/>
<path d="M1642 4020 l-42 -19 22 -46 c12 -25 28 -45 35 -45 8 0 32 9 53 20 46
23 53 57 20 90 -24 24 -33 24 -88 0z"/>
<path d="M1095 3649 c14 -44 46 -109 54 -109 12 0 61 40 61 50 0 4 -27 24 -61
44 -53 32 -60 33 -54 15z"/>
<path d="M2148 3499 c-212 -26 -438 -119 -606 -248 -256 -199 -422 -492 -472
-836 -9 -65 -8 -71 11 -87 39 -33 112 -24 219 27 66 31 108 45 138 45 44 0 49
-7 31 -43 -15 -28 -28 -37 -55 -37 -12 0 -64 -20 -116 -45 -83 -39 -104 -45
-162 -45 l-66 0 0 -50 c0 -45 3 -50 25 -56 37 -9 82 2 164 41 40 19 90 38 112
41 35 6 39 5 39 -15 0 -33 -18 -61 -40 -61 -10 0 -54 -18 -97 -41 -43 -22
-100 -46 -128 -53 -53 -14 -55 -19 -35 -72 13 -34 42 -31 138 16 44 22 93 40
107 40 23 0 26 -3 23 -31 -2 -25 -9 -33 -38 -43 -19 -7 -53 -23 -75 -37 -22
-14 -56 -31 -75 -39 -49 -19 -52 -22 -39 -57 15 -46 35 -48 98 -10 84 50 117
59 136 40 26 -25 14 -54 -27 -68 -20 -7 -60 -27 -88 -45 -42 -27 -49 -36 -44
-54 14 -49 28 -51 96 -18 35 17 71 34 81 37 14 4 18 13 15 37 -3 31 -1 33 40
40 25 4 64 22 91 42 38 28 51 45 61 80 7 25 41 96 76 158 74 130 74 133 43
305 -23 132 -20 182 17 255 22 44 63 92 71 84 2 -2 -5 -19 -16 -37 -26 -44
-44 -151 -36 -209 3 -25 17 -85 31 -133 32 -111 26 -146 -50 -262 -95 -146
-105 -210 -51 -321 14 -28 25 -55 25 -61 0 -11 -110 -93 -158 -117 -48 -25
-74 -17 -95 27 -22 43 -40 46 -105 17 -54 -25 -62 -45 -30 -77 l25 -25 41 21
c50 26 64 26 85 3 27 -29 20 -41 -29 -53 -37 -10 -44 -15 -42 -32 2 -11 15
-29 29 -40 24 -17 30 -18 64 -6 35 13 38 12 57 -11 l19 -24 -23 -17 -23 -18
23 -24 c30 -32 94 -65 99 -52 2 6 32 60 68 119 40 68 67 125 71 152 7 50 19
50 28 -1 8 -41 -13 -95 -68 -174 -19 -29 -41 -71 -48 -93 -11 -38 -10 -42 11
-59 34 -28 48 -23 55 20 3 21 29 73 57 117 107 163 106 206 -6 349 -74 94 -88
128 -83 199 4 63 9 73 113 220 47 65 48 130 5 246 -43 115 -47 172 -21 257 14
49 33 84 62 117 23 26 43 45 46 42 2 -2 -9 -28 -26 -57 -35 -64 -56 -161 -47
-221 4 -24 22 -79 42 -123 62 -142 58 -188 -28 -303 -80 -108 -104 -194 -75
-265 8 -18 39 -63 70 -102 71 -87 87 -121 87 -179 0 -56 -15 -95 -77 -193 -36
-58 -48 -87 -51 -128 -4 -51 -4 -52 28 -64 52 -18 55 -15 55 42 0 54 6 68 90
221 31 57 38 80 39 125 0 67 -16 100 -91 193 -100 123 -100 190 0 335 84 123
86 160 17 330 -33 84 -40 112 -40 170 0 89 21 150 71 204 46 50 63 46 24 -5
-32 -42 -55 -114 -55 -170 0 -52 17 -106 70 -231 37 -86 42 -106 38 -156 -4
-48 -12 -69 -58 -138 -96 -147 -96 -210 -3 -327 72 -91 85 -116 90 -189 5 -58
3 -64 -56 -179 -55 -108 -61 -125 -61 -181 0 -66 11 -85 57 -99 35 -11 42 0
26 45 -20 59 -4 125 60 250 57 114 69 180 44 241 -8 19 -44 74 -80 121 -66 86
-85 133 -73 180 3 13 28 58 56 101 27 42 57 93 65 113 15 34 16 35 53 28 48
-11 115 -11 174 -1 46 8 48 8 60 -20 6 -16 33 -58 59 -94 62 -87 69 -102 69
-149 0 -50 -14 -82 -65 -149 -129 -171 -132 -192 -44 -366 65 -131 82 -205 60
-266 l-11 -33 37 6 c20 4 41 11 47 17 6 6 11 41 11 78 -1 58 -6 77 -40 142
-21 41 -47 92 -58 112 -45 89 -26 168 71 291 64 81 74 101 74 152 0 48 -23 99
-89 194 -24 35 -46 75 -49 88 -12 47 4 112 52 214 48 102 49 106 49 199 0 97
-13 143 -61 208 -16 21 -16 22 0 16 29 -11 86 -95 102 -152 21 -72 14 -133
-30 -259 -54 -152 -59 -178 -45 -221 7 -20 39 -77 73 -125 60 -87 61 -90 61
-156 0 -73 -1 -76 -116 -233 -32 -43 -43 -68 -47 -107 -5 -60 8 -96 72 -200
46 -76 73 -163 61 -202 -6 -18 -4 -20 17 -14 72 23 71 22 64 72 -6 45 -32 100
-96 200 -26 43 -33 63 -33 105 0 64 22 111 104 221 56 75 59 83 59 136 0 67
-20 112 -96 226 -55 82 -56 85 -52 142 3 37 17 85 38 133 31 68 34 84 35 171
0 89 -2 100 -36 167 -19 40 -32 72 -28 72 4 0 23 -18 43 -40 77 -85 92 -182
51 -335 -47 -178 -47 -177 -35 -219 7 -22 41 -82 76 -133 110 -161 106 -196
-46 -403 -70 -95 -67 -154 14 -282 30 -46 60 -104 67 -129 7 -24 14 -45 15
-47 6 -8 64 30 64 42 0 16 -43 100 -93 180 -29 46 -37 70 -37 105 0 25 5 53
10 61 5 8 10 13 11 10 0 -3 3 -18 5 -35 8 -54 24 -93 64 -154 22 -34 49 -79
60 -101 11 -22 25 -40 31 -40 6 0 34 17 62 37 l50 37 -28 22 c-23 18 -25 24
-16 43 13 23 36 26 77 11 24 -9 31 -7 56 17 15 14 28 31 28 35 0 5 -20 18 -45
29 -51 22 -53 28 -25 54 19 17 22 17 77 -4 l58 -21 22 27 c13 16 23 30 23 33
0 11 -131 70 -141 65 -5 -4 -16 -22 -24 -41 -16 -39 -40 -44 -97 -20 -31 14
-158 103 -158 112 0 2 13 30 30 62 55 108 40 179 -68 346 -47 71 -52 84 -52
136 0 33 9 81 22 116 32 89 30 208 -5 298 -15 38 -26 71 -24 73 11 10 65 -63
82 -109 27 -71 28 -224 3 -286 -34 -82 -20 -151 52 -257 42 -61 80 -142 80
-168 0 -40 103 -116 158 -117 32 0 32 0 26 -40 -6 -36 -5 -40 15 -40 12 0 49
-14 83 -31 l62 -31 18 22 c10 12 18 30 18 39 0 17 -102 80 -152 94 -28 8 -33
21 -22 51 9 25 47 19 116 -17 98 -51 96 -51 118 -14 23 37 25 57 8 57 -7 0
-63 25 -124 55 -102 51 -111 58 -110 83 1 23 5 27 29 25 16 -1 64 -20 108 -43
93 -48 127 -49 147 -7 18 36 9 57 -23 57 -14 0 -70 23 -124 50 -54 28 -108 50
-120 50 -23 0 -46 42 -36 68 7 19 50 9 163 -39 65 -29 103 -39 130 -37 l37 3
3 52 3 52 -59 -1 c-49 -1 -74 6 -148 40 -49 23 -108 45 -132 51 -52 11 -50 10
-58 49 -6 32 -6 32 33 32 26 0 70 -15 131 -44 112 -55 147 -63 195 -42 35 14
37 18 37 59 0 70 -28 214 -61 311 -134 401 -507 723 -926 800 -107 20 -298 27
-395 15z m186 -143 l27 -64 81 -7 80 -7 -56 -57 c-31 -31 -56 -62 -56 -69 0
-20 48 -122 58 -122 6 0 41 18 78 40 67 39 170 77 181 67 3 -3 -5 -32 -16 -64
-20 -57 -26 -93 -16 -93 2 0 26 8 52 19 53 20 123 35 123 26 0 -3 -19 -40 -41
-81 -23 -41 -47 -96 -54 -122 -7 -26 -16 -46 -21 -45 -5 2 -62 21 -126 43
-152 52 -273 67 -412 51 -111 -13 -222 -41 -305 -77 -29 -13 -57 -24 -62 -24
-4 0 -13 19 -20 42 -12 47 -51 128 -80 170 -11 14 -19 29 -19 32 0 13 53 5
116 -19 37 -14 69 -23 72 -20 4 4 -23 93 -42 138 -18 41 88 5 206 -69 21 -13
41 -24 45 -24 5 0 21 32 37 72 l30 72 -57 51 c-31 28 -57 54 -57 58 0 4 22 7
49 7 94 0 103 5 135 76 16 35 32 64 36 64 4 0 19 -29 34 -64z m-968 -458 c38
-34 79 -109 90 -165 l6 -31 64 24 c101 38 220 42 231 8 2 -6 -23 -31 -55 -57
-33 -25 -83 -76 -112 -112 l-53 -65 -56 0 c-37 0 -76 -9 -116 -26 -136 -58
-169 -67 -207 -60 -21 4 -38 11 -38 16 0 5 30 54 66 109 87 134 115 205 122
309 2 45 9 82 13 82 5 0 25 -15 45 -32z m1938 -64 c1 -105 20 -152 116 -299
33 -50 60 -96 60 -103 0 -18 -68 -26 -113 -12 -23 7 -69 26 -102 43 -45 22
-78 31 -132 35 -71 4 -73 5 -99 44 -33 46 -137 145 -171 161 -31 14 -29 35 5
44 51 14 137 5 202 -21 35 -14 64 -26 65 -26 1 0 8 19 15 43 7 23 21 58 31 78
20 39 97 111 113 106 5 -2 10 -43 10 -93z m-943 -13 c73 -10 129 -40 160 -88
31 -47 26 -51 -67 -54 -107 -5 -124 -20 -124 -110 0 -63 12 -80 39 -55 13 12
38 16 90 16 84 0 90 -7 74 -85 -16 -75 -52 -144 -99 -192 -51 -50 -103 -68
-170 -58 -41 6 -56 15 -109 68 -67 68 -95 127 -97 210 -1 56 7 70 35 61 12 -4
51 -7 87 -7 77 1 86 10 76 77 -9 60 -36 78 -115 80 -33 0 -62 4 -66 8 -12 12
24 64 63 92 33 23 89 40 147 44 6 1 40 -3 76 -7z m-177 -211 l21 -21 -51 7
c-34 4 -54 2 -58 -5 -12 -19 -26 -12 -26 13 0 13 6 27 13 30 23 10 81 -3 101
-24z m344 -8 c3 -21 1 -23 -20 -15 -13 4 -42 8 -65 8 -27 0 -43 4 -43 12 0 15
25 21 80 20 39 -2 45 -5 48 -25z"/>
<path d="M2238 3037 c-32 -23 -56 -46 -54 -52 3 -9 224 -11 233 -1 4 4 -55 52
-97 79 -24 15 -27 14 -82 -26z"/>
<path d="M2255 2439 c-4 -6 -5 -12 -3 -14 7 -7 87 -9 94 -3 14 14 -9 28 -46
28 -21 0 -42 -5 -45 -11z"/>
<path d="M2200 2352 c0 -13 43 -50 69 -60 33 -12 66 -4 96 24 41 38 32 44 -70
44 -52 0 -95 -4 -95 -8z"/>
<path d="M1450 892 c-71 -35 -118 -145 -91 -210 26 -63 116 -82 171 -36 90 76
92 213 5 250 -43 18 -43 18 -85 -4z"/>
</g>
</svg>
